<?xml version="1.0" encoding="UTF-8" standalone="no"?>
<svg
   xmlns:dc="http://purl.org/dc/elements/1.1/"
   xmlns:cc="http://creativecommons.org/ns#"
   xmlns:rdf="http://www.w3.org/1999/02/22-rdf-syntax-ns#"
   xmlns:svg="http://www.w3.org/2000/svg"
   xmlns="http://www.w3.org/2000/svg"
   xmlns:sodipodi="http://sodipodi.sourceforge.net/DTD/sodipodi-0.dtd"
   xmlns:inkscape="http://www.inkscape.org/namespaces/inkscape"
   viewBox="0 0 977.86806 115.53453"
   height="115.53453"
   width="977.86804"
   xml:space="preserve"
   id="svg2"
   version="1.1"
   sodipodi:docname="banco-espirito-santo.svg"
   inkscape:version="0.92.4 (5da689c313, 2019-01-14)"><sodipodi:namedview
     pagecolor="#ffffff"
     bordercolor="#666666"
     borderopacity="1"
     objecttolerance="10"
     gridtolerance="10"
     guidetolerance="10"
     inkscape:pageopacity="0"
     inkscape:pageshadow="2"
     inkscape:window-width="1360"
     inkscape:window-height="706"
     id="namedview5103"
     showgrid="false"
     inkscape:zoom="0.32912573"
     inkscape:cx="105.23588"
     inkscape:cy="57.362537"
     inkscape:window-x="-8"
     inkscape:window-y="-8"
     inkscape:window-maximized="1"
     inkscape:current-layer="svg2" /><metadata
     id="metadata8"><rdf:RDF><cc:Work
         rdf:about=""><dc:format>image/svg+xml</dc:format><dc:type
           rdf:resource="http://purl.org/dc/dcmitype/StillImage" /></cc:Work></rdf:RDF></metadata><defs
     id="defs6"><clipPath
       id="clipPath22"
       clipPathUnits="userSpaceOnUse"><path
         id="path20"
         d="m 697.34,1125.08 c 42.496,13.93 87.887,21.46 135.043,21.46 239.287,0 433.257,-193.974 433.257,-433.259 0,-239.273 -193.97,-433.25 -433.257,-433.25 -47.215,0 -92.664,7.547 -135.211,21.508 C 589.668,306.051 500.5,380.41 473.199,480.328 371.324,509.227 296.68,602.902 296.68,714.066 c 0,111.219 74.73,204.965 176.711,233.793 l 4.683,13.614 c 31.727,92.167 117.344,159.277 219.266,163.607"
         inkscape:connector-curvature="0" /></clipPath></defs><g
     transform="matrix(1.3333333,0,0,-1.3333333,-39.557332,152.872)"
     id="g10"><g
       transform="scale(0.1)"
       id="g12"><g
         id="g16"><g
           clip-path="url(#clipPath22)"
           id="g18"><path
             id="path24"
             style="fill:#004e3b;fill-opacity:1;fill-rule:nonzero;stroke:none"
             d="m -81.4063,609.309 c 0,396.121 321.1093,717.231 717.2263,717.231 396.12,0 717.23,-321.11 717.23,-717.231 0,-396.118 -321.11,-717.231 -717.23,-717.231 -396.117,0 -717.2263,321.113 -717.2263,717.231"
             inkscape:connector-curvature="0" /><path
             id="path26"
             style="fill:#004e3b;fill-opacity:1;fill-rule:nonzero;stroke:none"
             d="m -66.7578,609.309 c 0,388.027 314.5468,702.581 702.5778,702.581 388.03,0 702.58,-314.554 702.58,-702.581 0,-388.028 -314.55,-702.5785 -702.58,-702.5785 -388.031,0 -702.5778,314.5505 -702.5778,702.5785"
             inkscape:connector-curvature="0" /><path
             id="path28"
             style="fill:#004e3b;fill-opacity:1;fill-rule:nonzero;stroke:none"
             d="m -52.1094,609.309 c 0,379.937 307.9924,687.931 687.9294,687.931 379.94,0 687.94,-307.994 687.94,-687.931 0,-379.938 -308,-687.9379 -687.94,-687.9379 -379.937,0 -687.9294,307.9999 -687.9294,687.9379"
             inkscape:connector-curvature="0" /><path
             id="path30"
             style="fill:#00523d;fill-opacity:1;fill-rule:nonzero;stroke:none"
             d="m -41.9375,609.309 c 0,374.316 303.4375,677.751 677.7575,677.751 374.32,0 677.76,-303.435 677.76,-677.751 0,-374.329 -303.44,-677.7582 -677.76,-677.7582 -374.32,0 -677.7575,303.4292 -677.7575,677.7582"
             inkscape:connector-curvature="0" /><path
             id="path32"
             style="fill:#00573f;fill-opacity:1;fill-rule:nonzero;stroke:none"
             d="m -31.7695,609.309 c 0,368.703 298.8865,667.591 667.5895,667.591 368.71,0 667.59,-298.888 667.59,-667.591 0,-368.707 -298.88,-667.5903 -667.59,-667.5903 -368.703,0 -667.5895,298.8833 -667.5895,667.5903"
             inkscape:connector-curvature="0" /><path
             id="path34"
             style="fill:#005b42;fill-opacity:1;fill-rule:nonzero;stroke:none"
             d="m -21.5977,609.309 c 0,363.086 294.3317,657.421 657.4177,657.421 363.086,0 657.42,-294.335 657.42,-657.421 0,-363.09 -294.334,-657.4184 -657.42,-657.4184 -363.086,0 -657.4177,294.3284 -657.4177,657.4184"
             inkscape:connector-curvature="0" /><path
             id="path36"
             style="fill:#006044;fill-opacity:1;fill-rule:nonzero;stroke:none"
             d="m -11.4258,609.309 c 0,357.464 289.7778,647.241 647.2458,647.241 357.465,0 647.25,-289.777 647.25,-647.241 0,-357.469 -289.785,-647.2504 -647.25,-647.2504 -357.468,0 -647.2458,289.7814 -647.2458,647.2504"
             inkscape:connector-curvature="0" /><path
             id="path38"
             style="fill:#006446;fill-opacity:1;fill-rule:nonzero;stroke:none"
             d="m -1.25391,609.309 c 0,351.851 285.22291,637.071 637.07391,637.071 351.852,0 637.08,-285.22 637.08,-637.071 0,-351.86 -285.228,-637.0785 -637.08,-637.0785 -351.851,0 -637.07391,285.2185 -637.07391,637.0785"
             inkscape:connector-curvature="0" /><path
             id="path40"
             style="fill:#006948;fill-opacity:1;fill-rule:nonzero;stroke:none"
             d="m 8.91406,609.309 c 0,346.234 280.67194,626.901 626.90594,626.901 346.235,0 626.91,-280.667 626.91,-626.901 C 1262.73,263.07 982.055,-17.6016 635.82,-17.6016 289.586,-17.6016 8.91406,263.07 8.91406,609.309"
             inkscape:connector-curvature="0" /><path
             id="path42"
             style="fill:#006d4a;fill-opacity:1;fill-rule:nonzero;stroke:none"
             d="m 19.082,609.309 c 0,340.621 276.117,616.741 616.738,616.741 340.618,0 616.74,-276.12 616.74,-616.741 C 1252.56,268.68 976.438,-7.42969 635.82,-7.42969 295.199,-7.42969 19.082,268.68 19.082,609.309"
             inkscape:connector-curvature="0" /><path
             id="path44"
             style="fill:#00724c;fill-opacity:1;fill-rule:nonzero;stroke:none"
             d="m 29.2539,609.309 c 0,335 271.5661,606.561 606.5661,606.561 335,0 606.57,-271.561 606.57,-606.561 C 1242.39,274.301 970.82,2.73828 635.82,2.73828 300.82,2.73828 29.2539,274.301 29.2539,609.309"
             inkscape:connector-curvature="0" /><path
             id="path46"
             style="fill:#00764d;fill-opacity:1;fill-rule:nonzero;stroke:none"
             d="m 39.4258,609.309 c 0,329.386 267.0122,596.391 596.3942,596.391 329.383,0 596.4,-267.005 596.4,-596.391 0,-329.387 -267.017,-596.3988 -596.4,-596.3988 -329.382,0 -596.3942,267.0118 -596.3942,596.3988"
             inkscape:connector-curvature="0" /><path
             id="path48"
             style="fill:#007b4f;fill-opacity:1;fill-rule:nonzero;stroke:none"
             d="m 49.5938,609.309 c 0,323.765 262.4612,586.231 586.2262,586.231 323.766,0 586.23,-262.466 586.23,-586.231 0,-323.778 -262.464,-586.2309 -586.23,-586.2309 -323.765,0 -586.2262,262.4529 -586.2262,586.2309"
             inkscape:connector-curvature="0" /><path
             id="path50"
             style="fill:#007f51;fill-opacity:1;fill-rule:nonzero;stroke:none"
             d="m 59.7656,609.309 c 0,318.148 257.9024,576.051 576.0544,576.051 318.149,0 576.06,-257.903 576.06,-576.051 C 1211.88,291.148 953.969,33.25 635.82,33.25 317.668,33.25 59.7656,291.148 59.7656,609.309"
             inkscape:connector-curvature="0" /><path
             id="path52"
             style="fill:#008352;fill-opacity:1;fill-rule:nonzero;stroke:none"
             d="m 69.9375,609.309 c 0,312.535 253.3475,565.881 565.8825,565.881 312.532,0 565.89,-253.346 565.89,-565.881 C 1201.71,296.77 948.352,43.4219 635.82,43.4219 323.285,43.4219 69.9375,296.77 69.9375,609.309"
             inkscape:connector-curvature="0" /><path
             id="path54"
             style="fill:#008853;fill-opacity:1;fill-rule:nonzero;stroke:none"
             d="m 80.1094,609.309 c 0,306.914 248.7926,555.711 555.7106,555.711 306.914,0 555.72,-248.797 555.72,-555.711 0,-306.918 -248.806,-555.7192 -555.72,-555.7192 -306.918,0 -555.7106,248.8012 -555.7106,555.7192"
             inkscape:connector-curvature="0" /><path
             id="path56"
             style="fill:#008c55;fill-opacity:1;fill-rule:nonzero;stroke:none"
             d="m 90.2773,609.309 c 0,301.3 244.2457,545.541 545.5427,545.541 301.297,0 545.55,-244.241 545.55,-545.541 0,-301.297 -244.253,-545.5473 -545.55,-545.5473 -301.297,0 -545.5427,244.2503 -545.5427,545.5473"
             inkscape:connector-curvature="0" /><path
             id="path58"
             style="fill:#009156;fill-opacity:1;fill-rule:nonzero;stroke:none"
             d="m 100.445,609.309 c 0,295.683 239.692,535.371 535.375,535.371 295.684,0 535.38,-239.688 535.38,-535.371 0,-295.688 -239.696,-535.3793 -535.38,-535.3793 -295.683,0 -535.375,239.6913 -535.375,535.3793"
             inkscape:connector-curvature="0" /><path
             id="path60"
             style="fill:#009557;fill-opacity:1;fill-rule:nonzero;stroke:none"
             d="m 110.621,609.309 c 0,290.062 235.137,525.201 525.199,525.201 290.063,0 525.21,-235.139 525.21,-525.201 0,-290.071 -235.147,-525.2074 -525.21,-525.2074 -290.062,0 -525.199,235.1364 -525.199,525.2074"
             inkscape:connector-curvature="0" /><path
             id="path62"
             style="fill:#009958;fill-opacity:1;fill-rule:nonzero;stroke:none"
             d="m 120.789,609.309 c 0,284.449 230.582,515.031 515.031,515.031 284.446,0 515.03,-230.582 515.03,-515.031 0,-284.45 -230.584,-515.0395 -515.03,-515.0395 -284.449,0 -515.031,230.5895 -515.031,515.0395"
             inkscape:connector-curvature="0" /><path
             id="path64"
             style="fill:#009e59;fill-opacity:1;fill-rule:nonzero;stroke:none"
             d="m 130.961,609.309 c 0,278.828 226.027,504.861 504.859,504.861 278.828,0 504.87,-226.033 504.87,-504.861 0,-278.84 -226.042,-504.868 -504.87,-504.868 -278.832,0 -504.859,226.028 -504.859,504.868"
             inkscape:connector-curvature="0" /><path
             id="path66"
             style="fill:#009e59;fill-opacity:1;fill-rule:nonzero;stroke:none"
             d="m 141.129,609.309 c 0,273.214 221.476,494.691 494.691,494.691 273.215,0 494.7,-221.477 494.7,-494.691 0,-273.219 -221.485,-494.7 -494.7,-494.7 -273.215,0 -494.691,221.481 -494.691,494.7"
             inkscape:connector-curvature="0" /><path
             id="path68"
             style="fill:#049f57;fill-opacity:1;fill-rule:nonzero;stroke:none"
             d="m 151.176,609.309 c 0,267.66 216.98,484.641 484.644,484.641 267.664,0 484.65,-216.981 484.65,-484.641 0,-267.668 -216.986,-484.649 -484.65,-484.649 -267.664,0 -484.644,216.981 -484.644,484.649"
             inkscape:connector-curvature="0" /><path
             id="path70"
             style="fill:#09a155;fill-opacity:1;fill-rule:nonzero;stroke:none"
             d="m 161.227,609.309 c 0,262.113 212.48,474.591 474.593,474.591 262.114,0 474.6,-212.478 474.6,-474.591 0,-262.118 -212.486,-474.598 -474.6,-474.598 -262.113,0 -474.593,212.48 -474.593,474.598"
             inkscape:connector-curvature="0" /><path
             id="path72"
             style="fill:#0da354;fill-opacity:1;fill-rule:nonzero;stroke:none"
             d="m 171.273,609.309 c 0,256.562 207.985,464.551 464.547,464.551 256.563,0 464.55,-207.989 464.55,-464.551 0,-256.571 -207.987,-464.547 -464.55,-464.547 -256.562,0 -464.547,207.976 -464.547,464.547"
             inkscape:connector-curvature="0" /><path
             id="path74"
             style="fill:#12a552;fill-opacity:1;fill-rule:nonzero;stroke:none"
             d="m 181.324,609.309 c 0,251.015 203.481,454.491 454.496,454.491 251.016,0 454.5,-203.476 454.5,-454.491 0,-251.02 -203.484,-454.5 -454.5,-454.5 -251.015,0 -454.496,203.48 -454.496,454.5"
             inkscape:connector-curvature="0" /><path
             id="path76"
             style="fill:#16a750;fill-opacity:1;fill-rule:nonzero;stroke:none"
             d="m 191.371,609.309 c 0,245.464 198.984,444.451 444.449,444.451 245.465,0 444.45,-198.987 444.45,-444.451 0,-245.469 -198.985,-444.45 -444.45,-444.45 -245.465,0 -444.449,198.981 -444.449,444.45"
             inkscape:connector-curvature="0" /><path
             id="path78"
             style="fill:#1ba94e;fill-opacity:1;fill-rule:nonzero;stroke:none"
             d="m 201.418,609.309 c 0,239.918 194.484,434.401 434.402,434.401 239.914,0 434.4,-194.483 434.4,-434.401 0,-239.918 -194.486,-434.411 -434.4,-434.411 -239.918,0 -434.402,194.493 -434.402,434.411"
             inkscape:connector-curvature="0" /><path
             id="path80"
             style="fill:#20aa4c;fill-opacity:1;fill-rule:nonzero;stroke:none"
             d="m 211.469,609.309 c 0,234.367 189.984,424.351 424.351,424.351 234.368,0 424.36,-189.984 424.36,-424.351 0,-234.368 -189.992,-424.36 -424.36,-424.36 -234.367,0 -424.351,189.992 -424.351,424.36"
             inkscape:connector-curvature="0" /><path
             id="path82"
             style="fill:#24ac4b;fill-opacity:1;fill-rule:nonzero;stroke:none"
             d="m 221.516,609.309 c 0,228.816 185.488,414.301 414.304,414.301 228.813,0 414.31,-185.485 414.31,-414.301 C 1050.13,380.488 864.633,195 635.82,195 407.004,195 221.516,380.488 221.516,609.309"
             inkscape:connector-curvature="0" /><path
             id="path84"
             style="fill:#29ae49;fill-opacity:1;fill-rule:nonzero;stroke:none"
             d="m 231.566,609.309 c 0,223.265 180.989,404.251 404.254,404.251 223.266,0 404.26,-180.986 404.26,-404.251 0,-223.27 -180.994,-404.258 -404.26,-404.258 -223.265,0 -404.254,180.988 -404.254,404.258"
             inkscape:connector-curvature="0" /><path
             id="path86"
             style="fill:#2eb047;fill-opacity:1;fill-rule:nonzero;stroke:none"
             d="m 241.613,609.309 c 0,217.718 176.489,394.211 394.207,394.211 217.719,0 394.21,-176.493 394.21,-394.211 0,-217.731 -176.491,-394.207 -394.21,-394.207 -217.718,0 -394.207,176.476 -394.207,394.207"
             inkscape:connector-curvature="0" /><path
             id="path88"
             style="fill:#33b245;fill-opacity:1;fill-rule:nonzero;stroke:none"
             d="m 251.66,609.309 c 0,212.168 171.992,384.16 384.16,384.16 212.168,0 384.17,-171.992 384.17,-384.16 0,-212.168 -172.002,-384.168 -384.17,-384.168 -212.168,0 -384.16,172 -384.16,384.168"
             inkscape:connector-curvature="0" /><path
             id="path90"
             style="fill:#37b343;fill-opacity:1;fill-rule:nonzero;stroke:none"
             d="m 261.711,609.309 c 0,206.617 167.492,374.113 374.109,374.113 206.618,0 374.11,-167.496 374.11,-374.113 0,-206.629 -167.492,-374.118 -374.11,-374.118 -206.617,0 -374.109,167.489 -374.109,374.118"
             inkscape:connector-curvature="0" /><path
             id="path92"
             style="fill:#3cb541;fill-opacity:1;fill-rule:nonzero;stroke:none"
             d="m 271.758,609.309 c 0,201.07 162.992,364.062 364.062,364.062 201.067,0 364.063,-162.992 364.063,-364.062 0,-201.079 -162.996,-364.071 -364.063,-364.071 -201.07,0 -364.062,162.992 -364.062,364.071"
             inkscape:connector-curvature="0" /><path
             id="path94"
             style="fill:#41b73f;fill-opacity:1;fill-rule:nonzero;stroke:none"
             d="m 281.809,609.309 c 0,195.515 158.492,354.011 354.011,354.011 195.52,0 354.012,-158.496 354.012,-354.011 0,-195.52 -158.492,-354.02 -354.012,-354.02 -195.519,0 -354.011,158.5 -354.011,354.02"
             inkscape:connector-curvature="0" /><path
             id="path96"
             style="fill:#45b93d;fill-opacity:1;fill-rule:nonzero;stroke:none"
             d="m 291.855,609.309 c 0,189.972 153.997,343.964 343.965,343.964 189.969,0 343.965,-153.992 343.965,-343.964 0,-189.981 -153.996,-343.969 -343.965,-343.969 -189.968,0 -343.965,153.988 -343.965,343.969"
             inkscape:connector-curvature="0" /><path
             id="path98"
             style="fill:#4bbb3a;fill-opacity:1;fill-rule:nonzero;stroke:none"
             d="m 301.902,609.309 c 0,184.418 149.496,333.918 333.918,333.918 184.418,0 333.918,-149.5 333.918,-333.918 0,-184.418 -149.5,-333.93 -333.918,-333.93 -184.422,0 -333.918,149.512 -333.918,333.93"
             inkscape:connector-curvature="0" /><path
             id="path100"
             style="fill:#4fbd38;fill-opacity:1;fill-rule:nonzero;stroke:none"
             d="m 311.949,609.309 c 0,178.871 145,323.867 323.871,323.867 178.871,0 323.871,-144.996 323.871,-323.867 0,-178.871 -145,-323.879 -323.871,-323.879 -178.871,0 -323.871,145.008 -323.871,323.879"
             inkscape:connector-curvature="0" /><path
             id="path102"
             style="fill:#54bf36;fill-opacity:1;fill-rule:nonzero;stroke:none"
             d="m 321.996,609.309 c 0,173.32 140.504,313.82 313.824,313.82 173.321,0 313.821,-140.5 313.821,-313.82 0,-173.321 -140.5,-313.829 -313.821,-313.829 -173.32,0 -313.824,140.508 -313.824,313.829"
             inkscape:connector-curvature="0" /><path
             id="path104"
             style="fill:#59c134;fill-opacity:1;fill-rule:nonzero;stroke:none"
             d="m 332.047,609.309 c 0,167.773 136,303.769 303.773,303.769 167.77,0 303.77,-135.996 303.77,-303.769 0,-167.774 -136,-303.778 -303.77,-303.778 -167.773,0 -303.773,136.004 -303.773,303.778"
             inkscape:connector-curvature="0" /><path
             id="path106"
             style="fill:#59c134;fill-opacity:1;fill-rule:nonzero;stroke:none"
             d="m 342.094,609.309 c 0,162.222 131.504,293.726 293.726,293.726 162.223,0 293.727,-131.504 293.727,-293.726 0,-162.223 -131.504,-293.731 -293.727,-293.731 -162.222,0 -293.726,131.508 -293.726,293.731"
             inkscape:connector-curvature="0" /><path
             id="path108"
             style="fill:#5dc233;fill-opacity:1;fill-rule:nonzero;stroke:none"
             d="m 352.223,609.309 c 0,156.625 126.968,283.597 283.597,283.597 156.625,0 283.598,-126.972 283.598,-283.597 0,-156.625 -126.973,-283.598 -283.598,-283.598 -156.629,0 -283.597,126.973 -283.597,283.598"
             inkscape:connector-curvature="0" /><path
             id="path110"
             style="fill:#60c333;fill-opacity:1;fill-rule:nonzero;stroke:none"
             d="m 362.352,609.309 c 0,151.035 122.433,273.468 273.468,273.468 151.035,0 273.469,-122.433 273.469,-273.468 0,-151.036 -122.434,-273.469 -273.469,-273.469 -151.035,0 -273.468,122.433 -273.468,273.469"
             inkscape:connector-curvature="0" /><path
             id="path112"
             style="fill:#63c332;fill-opacity:1;fill-rule:nonzero;stroke:none"
             d="m 372.48,609.309 c 0,145.437 117.899,263.339 263.34,263.339 145.442,0 263.336,-117.902 263.336,-263.339 0,-145.442 -117.894,-263.348 -263.336,-263.348 -145.441,0 -263.34,117.906 -263.34,263.348"
             inkscape:connector-curvature="0" /><path
             id="path114"
             style="fill:#66c532;fill-opacity:1;fill-rule:nonzero;stroke:none"
             d="m 382.609,609.309 c 0,139.843 113.368,253.207 253.211,253.207 139.844,0 253.207,-113.364 253.207,-253.207 0,-139.844 -113.363,-253.207 -253.207,-253.207 -139.843,0 -253.211,113.363 -253.211,253.207"
             inkscape:connector-curvature="0" /><path
             id="path116"
             style="fill:#69c531;fill-opacity:1;fill-rule:nonzero;stroke:none"
             d="m 392.738,609.309 c 0,134.254 108.828,243.082 243.082,243.082 134.25,0 243.082,-108.828 243.082,-243.082 0,-134.254 -108.832,-243.09 -243.082,-243.09 -134.254,0 -243.082,108.836 -243.082,243.09"
             inkscape:connector-curvature="0" /><path
             id="path118"
             style="fill:#6dc631;fill-opacity:1;fill-rule:nonzero;stroke:none"
             d="m 402.867,609.309 c 0,128.656 104.297,232.949 232.953,232.949 128.657,0 232.953,-104.293 232.953,-232.949 0,-128.657 -104.296,-232.957 -232.953,-232.957 -128.656,0 -232.953,104.3 -232.953,232.957"
             inkscape:connector-curvature="0" /><path
             id="path120"
             style="fill:#70c730;fill-opacity:1;fill-rule:nonzero;stroke:none"
             d="m 413,609.309 c 0,123.062 99.758,222.824 222.82,222.824 123.063,0 222.825,-99.762 222.825,-222.824 C 858.645,486.246 758.883,386.48 635.82,386.48 512.758,386.48 413,486.246 413,609.309"
             inkscape:connector-curvature="0" /><path
             id="path122"
             style="fill:#73c830;fill-opacity:1;fill-rule:nonzero;stroke:none"
             d="m 423.121,609.309 c 0,117.472 95.227,212.699 212.699,212.699 117.473,0 212.7,-95.227 212.7,-212.699 0,-117.469 -95.227,-212.707 -212.7,-212.707 -117.472,0 -212.699,95.238 -212.699,212.707"
             inkscape:connector-curvature="0" /><path
             id="path124"
             style="fill:#76c92f;fill-opacity:1;fill-rule:nonzero;stroke:none"
             d="m 433.254,609.309 c 0,111.875 90.687,202.566 202.566,202.566 111.875,0 202.571,-90.691 202.571,-202.566 0,-111.875 -90.696,-202.571 -202.571,-202.571 -111.879,0 -202.566,90.696 -202.566,202.571"
             inkscape:connector-curvature="0" /><path
             id="path126"
             style="fill:#79ca2e;fill-opacity:1;fill-rule:nonzero;stroke:none"
             d="m 443.379,609.309 c 0,106.285 86.156,192.441 192.441,192.441 106.282,0 192.442,-86.156 192.442,-192.441 0,-106.286 -86.16,-192.45 -192.442,-192.45 -106.285,0 -192.441,86.164 -192.441,192.45"
             inkscape:connector-curvature="0" /><path
             id="path128"
             style="fill:#7dcb2e;fill-opacity:1;fill-rule:nonzero;stroke:none"
             d="m 453.508,609.309 c 0,100.687 81.625,182.308 182.312,182.308 100.688,0 182.309,-81.621 182.309,-182.308 C 818.129,508.621 736.508,427 635.82,427 535.133,427 453.508,508.621 453.508,609.309"
             inkscape:connector-curvature="0" /><path
             id="path130"
             style="fill:#80cc2d;fill-opacity:1;fill-rule:nonzero;stroke:none"
             d="m 463.637,609.309 c 0,95.093 77.09,172.183 172.183,172.183 95.094,0 172.18,-77.09 172.18,-172.183 0,-95.094 -77.086,-172.184 -172.18,-172.184 -95.093,0 -172.183,77.09 -172.183,172.184"
             inkscape:connector-curvature="0" /><path
             id="path132"
             style="fill:#83cd2d;fill-opacity:1;fill-rule:nonzero;stroke:none"
             d="m 473.77,609.309 c 0,89.504 72.55,162.05 162.05,162.05 89.5,0 162.051,-72.546 162.051,-162.05 0,-89.5 -72.551,-162.051 -162.051,-162.051 -89.5,0 -162.05,72.551 -162.05,162.051"
             inkscape:connector-curvature="0" /><path
             id="path134"
             style="fill:#86ce2c;fill-opacity:1;fill-rule:nonzero;stroke:none"
             d="m 483.898,609.309 c 0,83.906 68.016,151.925 151.922,151.925 83.907,0 151.922,-68.019 151.922,-151.925 0,-83.907 -68.015,-151.922 -151.922,-151.922 -83.906,0 -151.922,68.015 -151.922,151.922"
             inkscape:connector-curvature="0" /><path
             id="path136"
             style="fill:#89cf2c;fill-opacity:1;fill-rule:nonzero;stroke:none"
             d="m 494.023,609.309 c 0,78.316 63.481,141.796 141.797,141.796 78.313,0 141.797,-63.48 141.797,-141.796 0,-78.317 -63.484,-141.797 -141.797,-141.797 -78.316,0 -141.797,63.48 -141.797,141.797"
             inkscape:connector-curvature="0" /><path
             id="path138"
             style="fill:#8cd02b;fill-opacity:1;fill-rule:nonzero;stroke:none"
             d="m 504.152,609.309 c 0,72.718 58.946,131.671 131.668,131.671 72.723,0 131.668,-58.953 131.668,-131.671 0,-72.719 -58.945,-131.668 -131.668,-131.668 -72.722,0 -131.668,58.949 -131.668,131.668"
             inkscape:connector-curvature="0" /><path
             id="path140"
             style="fill:#8fd12b;fill-opacity:1;fill-rule:nonzero;stroke:none"
             d="m 514.281,609.309 c 0,67.125 54.414,121.539 121.539,121.539 67.125,0 121.539,-54.414 121.539,-121.539 0,-67.125 -54.414,-121.539 -121.539,-121.539 -67.125,0 -121.539,54.414 -121.539,121.539"
             inkscape:connector-curvature="0" /><path
             id="path142"
             style="fill:#93d22a;fill-opacity:1;fill-rule:nonzero;stroke:none"
             d="m 524.41,609.309 c 0,61.535 49.879,111.41 111.41,111.41 61.532,0 111.41,-49.875 111.41,-111.41 0,-61.532 -49.878,-111.411 -111.41,-111.411 -61.531,0 -111.41,49.879 -111.41,111.411"
             inkscape:connector-curvature="0" /><path
             id="path144"
             style="fill:#96d32a;fill-opacity:1;fill-rule:nonzero;stroke:none"
             d="m 534.535,609.309 c 0,55.937 45.348,101.285 101.285,101.285 55.938,0 101.282,-45.348 101.282,-101.285 0,-55.938 -45.344,-101.286 -101.282,-101.286 -55.937,0 -101.285,45.348 -101.285,101.286"
             inkscape:connector-curvature="0" /><path
             id="path146"
             style="fill:#99d429;fill-opacity:1;fill-rule:nonzero;stroke:none"
             d="m 544.668,609.309 c 0,50.343 40.809,91.152 91.152,91.152 50.344,0 91.153,-40.809 91.153,-91.152 0,-50.34 -40.809,-91.153 -91.153,-91.153 -50.343,0 -91.152,40.813 -91.152,91.153"
             inkscape:connector-curvature="0" /><path
             id="path148"
             style="fill:#9cd529;fill-opacity:1;fill-rule:nonzero;stroke:none"
             d="m 554.797,609.309 c 0,44.746 36.273,81.023 81.023,81.023 44.75,0 81.024,-36.277 81.024,-81.023 0,-44.75 -36.274,-81.028 -81.024,-81.028 -44.75,0 -81.023,36.278 -81.023,81.028"
             inkscape:connector-curvature="0" /><path
             id="path150"
             style="fill:#9fd628;fill-opacity:1;fill-rule:nonzero;stroke:none"
             d="m 564.922,609.309 c 0,39.156 31.742,70.898 70.898,70.898 39.157,0 70.899,-31.742 70.899,-70.898 0,-39.157 -31.742,-70.899 -70.899,-70.899 -39.156,0 -70.898,31.742 -70.898,70.899"
             inkscape:connector-curvature="0" /><path
             id="path152"
             style="fill:#a3d728;fill-opacity:1;fill-rule:nonzero;stroke:none"
             d="m 575.051,609.309 c 0,33.562 27.207,60.769 60.769,60.769 33.563,0 60.77,-27.207 60.77,-60.769 0,-33.567 -27.207,-60.774 -60.77,-60.774 -33.562,0 -60.769,27.207 -60.769,60.774"
             inkscape:connector-curvature="0" /><path
             id="path154"
             style="fill:#a6d827;fill-opacity:1;fill-rule:nonzero;stroke:none"
             d="m 585.18,609.309 c 0,27.968 22.672,50.64 50.64,50.64 27.969,0 50.641,-22.672 50.641,-50.64 0,-27.969 -22.672,-50.641 -50.641,-50.641 -27.968,0 -50.64,22.672 -50.64,50.641"
             inkscape:connector-curvature="0" /><path
             id="path156"
             style="fill:#a9d927;fill-opacity:1;fill-rule:nonzero;stroke:none"
             d="m 595.309,609.309 c 0,22.375 18.136,40.511 40.511,40.511 22.375,0 40.512,-18.136 40.512,-40.511 0,-22.371 -18.137,-40.512 -40.512,-40.512 -22.375,0 -40.511,18.141 -40.511,40.512"
             inkscape:connector-curvature="0" /><path
             id="path158"
             style="fill:#acda27;fill-opacity:1;fill-rule:nonzero;stroke:none"
             d="m 605.438,609.309 c 0,16.777 13.601,30.382 30.382,30.382 16.782,0 30.383,-13.605 30.383,-30.382 0,-16.782 -13.601,-30.379 -30.383,-30.379 -16.781,0 -30.382,13.597 -30.382,30.379"
             inkscape:connector-curvature="0" /><path
             id="path160"
             style="fill:#afdb26;fill-opacity:1;fill-rule:nonzero;stroke:none"
             d="m 615.566,609.309 c 0,11.187 9.067,20.254 20.254,20.254 11.184,0 20.254,-9.067 20.254,-20.254 0,-11.188 -9.07,-20.254 -20.254,-20.254 -11.187,0 -20.254,9.066 -20.254,20.254"
             inkscape:connector-curvature="0" /><path
             id="path162"
             style="fill:#b2dc26;fill-opacity:1;fill-rule:nonzero;stroke:none"
             d="m 625.695,609.309 c 0,5.589 4.535,10.121 10.125,10.121 5.59,0 10.125,-4.532 10.125,-10.121 0,-5.59 -4.535,-10.125 -10.125,-10.125 -5.59,0 -10.125,4.535 -10.125,10.125"
             inkscape:connector-curvature="0" /></g></g><path
         id="path164"
         style="fill:#ffffff;fill-opacity:1;fill-rule:nonzero;stroke:none"
         d="m 497.461,954.801 c 30.047,87.279 112.883,149.999 210.367,149.999 106.082,0 194.586,-74.26 216.973,-173.624 78.039,-17.391 140.629,-75.774 163.979,-151.383 H 983.715 c -22.141,36.141 -62.004,60.258 -107.5,60.258 -54.172,0 -100.36,-34.188 -118.156,-82.168 h 336.271 c 2.83,-14.164 4.32,-28.817 4.32,-43.817 0,-122.843 -99.587,-222.429 -222.435,-222.429 -67.242,0 -127.516,29.84 -168.305,77 -30.16,-34.879 -70.984,-60.282 -117.398,-71.149 18.57,-46.418 63.961,-79.218 117.011,-79.218 44.528,0 83.665,23.113 106.071,57.98 19.894,-5.227 40.777,-8.012 62.316,-8.012 14.313,0 28.344,1.231 41.985,3.59 -30.047,-87.289 -112.883,-150 -210.372,-150 -106.679,0 -195.585,75.102 -217.339,175.324 -99.055,22.481 -173,111.059 -173,216.914 0,122.844 99.582,222.43 222.429,222.43 67.242,0 127.516,-29.84 168.297,-76.996 29.953,34.629 70.41,59.914 116.418,70.91 -18.887,45.75 -63.93,77.94 -116.5,77.94 -44.527,0 -83.656,-23.104 -106.066,-57.971 -19.895,5.23 -40.778,8.012 -62.317,8.012 -14.316,0 -28.34,-1.231 -41.984,-3.59 z M 657.766,757.883 c -17.801,47.98 -63.985,82.168 -118.153,82.168 -54.172,0 -100.355,-34.188 -118.156,-82.168 z M 421.457,670.25 c 17.801,-47.977 63.984,-82.16 118.156,-82.16 45.496,0 85.356,24.109 107.5,60.258 h 121.598 c 22.144,-36.149 62.008,-60.258 107.504,-60.258 54.172,0 100.359,34.183 118.152,82.16 h -572.91"
         inkscape:connector-curvature="0" /><path
         id="path166"
         style="fill:#009e59;fill-opacity:1;fill-rule:nonzero;stroke:none"
         d="m 1703.99,544.031 h -206.72 v 304.645 c -0.01,0.308 -0.02,0.629 -0.02,0.945 0,16.621 13.66,30.098 30.52,30.098 h 149.98 c 71.33,0 105.44,-37.481 106.43,-90.891 v -6.633 c -0.39,-21.015 -6.07,-40.687 -26.68,-58.843 32.36,-14.082 45.15,-43.528 45.75,-77.497 v -0.242 c -0.99,-56.597 -27.93,-101.582 -99.26,-101.582 z m -129.96,63.008 h 116 c 0,0 34.67,-2.008 34.67,34.266 0,1.543 0,7.308 0,8.851 0,34.078 -34.67,32.168 -34.67,32.168 h -116 z m 0,209.883 v -73.106 h 95.55 c 0,0 37.13,-1.183 37.13,33.649 0,1.519 0,6.531 0,8.039 0,32.551 -37.13,31.418 -37.13,31.418 h -95.55"
         inkscape:connector-curvature="0" /><path
         id="path168"
         style="fill:#009e59;fill-opacity:1;fill-rule:evenodd;stroke:none"
         d="m 2881.68,560.199 c -29.06,-12.008 -58.01,-21.797 -124.45,-21.797 -96.73,0 -175.14,78.512 -175.14,175.364 0,96.851 64.57,175.363 175.53,175.363 74.97,0 124.2,-20.008 124.2,-20.008 l -13.94,-54.09 c -23.77,6.574 -61.81,12.535 -86.07,12.535 -80.16,0 -111.02,-49.402 -111.02,-111.097 0,-61.696 42.83,-113.906 112.72,-113.906 37.83,0 76.61,8.308 98.27,15.714 l -0.1,-58.078"
         inkscape:connector-curvature="0" /><path
         id="path170"
         style="fill:#009e59;fill-opacity:1;fill-rule:evenodd;stroke:none"
         d="m 2056.71,667.301 -56.7,149.785 c -0.67,1.867 -3.05,1.676 -3.68,0.012 l -56.78,-149.797 z m -249.69,-123.274 128.3,315.809 c 4.65,12.445 13.23,19.879 23.88,19.879 h 78.97 c 10.63,0 19.48,-7.434 23.88,-19.879 l 128.31,-315.809 h -86.78 l -23.95,62.555 h -162.99 l -23.74,-62.555 h -85.88"
         inkscape:connector-curvature="0" /><path
         id="path172"
         style="fill:#009e59;fill-opacity:1;fill-rule:evenodd;stroke:none"
         d="m 3267.7,713.422 c 0.22,-97.949 -68.33,-175.758 -181.93,-175.758 h -4.8 c -113.6,0 -182.16,77.809 -181.93,175.758 0.22,97.73 68.33,174.969 181.93,174.969 h 4.8 c 113.6,0 181.71,-77.239 181.93,-174.969 z m -87.28,1.34 c -1.75,57.726 -39.1,110.929 -96.89,110.926 -57.79,0.003 -95.5,-53.2 -97.2,-108.497 v -5.621 c 1.7,-55.297 39.05,-108.5 96.84,-108.5 57.79,0 95.49,53.203 97.2,108.5 l 0.05,3.192"
         inkscape:connector-curvature="0" /><path
         id="path174"
         style="fill:#009e59;fill-opacity:1;fill-rule:evenodd;stroke:none"
         d="M 2457.78,548.867 2294.94,753.551 V 544.027 h -77.52 l -0.14,309.176 c 0,14.68 12.06,26.582 26.94,26.582 h 58.67 l 166.7,-208.683 v 208.613 h 78.45 V 544.027 h -79.91 c -4.21,-0.019 -7.66,1.59 -10.35,4.84"
         inkscape:connector-curvature="0" /><path
         id="path176"
         style="fill:#009e59;fill-opacity:1;fill-rule:evenodd;stroke:none"
         d="M 5718.32,713.199 C 5718.54,615.246 5650,537.438 5536.39,537.438 h -4.79 c -113.61,0 -182.16,77.808 -181.94,175.761 0.22,97.735 68.33,174.965 181.94,174.965 h 4.79 c 113.61,0 181.71,-77.23 181.93,-174.965 z m -87.28,1.34 c -1.75,57.731 -39.09,110.934 -96.88,110.926 -57.8,0.008 -95.5,-53.195 -97.2,-108.496 v -5.617 c 1.7,-55.301 39.04,-108.508 96.83,-108.504 57.8,-0.004 95.5,53.203 97.2,108.504 l 0.05,3.187"
         inkscape:connector-curvature="0" /><path
         id="path178"
         style="fill:#009e59;fill-opacity:1;fill-rule:evenodd;stroke:none"
         d="m 4417.57,543.801 h 82.6211 V 879.313 H 4417.57 Z"
         inkscape:connector-curvature="0" /><path
         id="path180"
         style="fill:#009e59;fill-opacity:1;fill-rule:evenodd;stroke:none"
         d="M 5347.78,879.488 V 815.055 H 5229.46 V 543.801 h -85.27 l 0.01,271.254 h -118.32 v 64.433 h 321.9"
         inkscape:connector-curvature="0" /><path
         id="path182"
         style="fill:#009e59;fill-opacity:1;fill-rule:evenodd;stroke:none"
         d="m 4901.45,543.98 h 82.6094 V 879.488 H 4901.45 Z"
         inkscape:connector-curvature="0" /><path
         id="path184"
         style="fill:#009e59;fill-opacity:1;fill-rule:evenodd;stroke:none"
         d="m 3522.33,743.125 h 168.84 v -61.488 h -168.82 l 0.03,-75.293 h 191.71 v -62.543 h -276.85 v 298.012 c 0,27.789 17.85,37.558 38.43,37.558 l 228.93,0.02 v -61.672 l -182.29,0.004 0.02,-74.598"
         inkscape:connector-curvature="0" /><path
         id="path186"
         style="fill:#009e59;fill-opacity:1;fill-rule:nonzero;stroke:none"
         d="m 3955.98,649.547 c -0.99,2.789 -4,9.777 -15.38,13.019 0,0 -75.69,18.071 -121.2,28.516 -46.3,12.199 -63.51,43.895 -63.51,93.484 0,51.789 25.14,94.911 97.93,94.911 h 164.36 v -61.555 h -157.76 c 0,0 -25.95,0 -25.95,-26.414 0,-4.875 0.08,-8.836 0.08,-8.836 0,-9.91 8.87,-18.524 22.71,-20.844 l 101.43,-23.242 c 44.65,-10.129 78.25,-43.352 78.25,-95.645 0,-63.543 -34.65,-99.14 -99.55,-99.14 h -182.41 v 63.129 h 173.33 c 0,0 28.67,0 28.67,23.59 0,3.753 0.5,15.402 -1,19.027"
         inkscape:connector-curvature="0" /><path
         id="path188"
         style="fill:#009e59;fill-opacity:1;fill-rule:nonzero;stroke:none"
         d="m 4107.3,879.313 h 154.91 c 71.29,0 107.87,-37.461 108.86,-90.84 v -51.957 c -0.99,-53.379 -37.57,-90.844 -108.86,-90.844 H 4153.54 V 543.801 h -76.72 l -0.02,305.429 c 0,16.618 13.66,30.083 30.5,30.083 z m 46.24,-62.762 V 708.434 h 100.5 c 0,0 39.6,-1.133 39.6,31.402 v 1.055 44.257 c 0,32.536 -39.6,31.403 -39.6,31.403 h -100.5"
         inkscape:connector-curvature="0" /><path
         id="path190"
         style="fill:#009e59;fill-opacity:1;fill-rule:nonzero;stroke:none"
         d="m 4770.18,549.809 -65.41,95.863 H 4635.7 V 543.801 h -76.73 l -0.01,305.429 c 0,16.618 13.65,30.083 30.49,30.083 h 154.91 c 71.29,0 107.87,-37.461 108.87,-90.84 v -51.957 c -0.77,-41.391 -21.44,-73.211 -63.93,-85.418 l 72.87,-107.297 h -80.63 c -4.96,-0.016 -8.75,1.988 -11.36,6.008 z M 4635.7,816.551 V 708.434 h 100.49 c 0,0 39.6,-1.133 39.6,31.402 v 1.055 44.257 c 0,32.536 -39.6,31.403 -39.6,31.403 H 4635.7"
         inkscape:connector-curvature="0" /><path
         id="path192"
         style="fill:#009e59;fill-opacity:1;fill-rule:evenodd;stroke:none"
         d="M 7143.74,817.922 V 543.801 h -78.59 V 817.922 H 6943.5 v 61.566 h 321.89 v -61.566 h -121.65"
         inkscape:connector-curvature="0" /><path
         id="path194"
         style="fill:#009e59;fill-opacity:1;fill-rule:evenodd;stroke:none"
         d="m 7630.69,713.199 c 0.22,-97.953 -68.33,-175.761 -181.93,-175.761 h -4.8 c -113.6,0 -182.15,77.808 -181.93,175.761 0.22,97.735 68.33,174.965 181.93,174.965 h 4.8 c 113.6,0 181.71,-77.23 181.93,-174.965 z m -87.28,1.34 c -1.75,57.731 -39.1,110.934 -96.89,110.926 -57.79,0.008 -95.49,-53.195 -97.2,-108.496 v -5.617 c 1.71,-55.301 39.04,-108.504 96.84,-108.504 57.79,0 95.5,53.203 97.19,108.504 l 0.06,3.187"
         inkscape:connector-curvature="0" /><path
         id="path196"
         style="fill:#009e59;fill-opacity:1;fill-rule:evenodd;stroke:none"
         d="m 6421.49,667.082 -56.69,149.781 c -0.68,1.871 -3.06,1.672 -3.69,0.012 L 6304.33,667.082 Z M 6171.8,543.801 6300.1,859.613 c 4.65,12.446 13.24,19.875 23.88,19.875 h 78.96 c 10.64,0 19.49,-7.429 23.89,-19.875 l 128.31,-315.812 h -86.78 l -23.94,62.562 h -163 l -23.74,-62.562 h -85.88"
         inkscape:connector-curvature="0" /><path
         id="path198"
         style="fill:#009e59;fill-opacity:1;fill-rule:evenodd;stroke:none"
         d="m 6818.25,548.648 -162.84,204.68 V 543.801 h -77.52 l -0.15,309.183 c 0,14.68 12.07,26.579 26.95,26.579 h 58.67 l 166.7,-208.68 v 208.605 h 78.44 V 543.801 h -79.9 c -4.22,-0.02 -7.66,1.597 -10.35,4.847"
         inkscape:connector-curvature="0" /><path
         id="path200"
         style="fill:#009e59;fill-opacity:1;fill-rule:nonzero;stroke:none"
         d="m 6087.04,649.555 c -1,2.781 -4,9.769 -15.38,13.011 0,0 -75.7,18.071 -121.2,28.516 -46.31,12.199 -63.51,43.895 -63.51,93.484 0,51.789 25.13,94.911 97.92,94.911 h 166.86 v -61.555 h -160.25 c 0,0 -25.95,0 -25.95,-26.414 0,-4.875 0.08,-8.828 0.08,-8.828 0,-9.918 8.86,-18.532 22.71,-20.852 l 101.42,-23.242 c 44.65,-10.129 78.25,-43.352 78.25,-95.645 0,-63.543 -34.65,-99.14 -99.54,-99.14 h -182.42 v 63.129 h 173.34 c 0,0 28.66,0 28.66,23.59 0,3.753 0.5,15.406 -0.99,19.035"
         inkscape:connector-curvature="0" /></g></g></svg>