<svg xmlns="http://www.w3.org/2000/svg" viewBox="0 0 212.26 31"><defs><style>.cls-1{fill:#009f98;}</style></defs><g id="Layer_2" data-name="Layer 2"><g id="Layer_1-2" data-name="Layer 1"><path class="cls-1" d="M20.52,17.53V30.36a12.67,12.67,0,0,1-3.42.42,12.93,12.93,0,0,1-3.42-.42V17.1c0-1.92-.85-3.2-3.85-3.2a11.35,11.35,0,0,0-3,.42v16a12.67,12.67,0,0,1-3.42.42A12.93,12.93,0,0,1,0,30.36V10.69A22.61,22.61,0,0,1,10.26,8.34C15.82,8.34,20.52,10.26,20.52,17.53Z"/><path class="cls-1" d="M23.47,19.67c0-7.1,4.7-11.33,11.54-11.33s11.55,4.23,11.55,11.33S41.85,31,35,31,23.47,26.76,23.47,19.67Zm16,0C39.5,16.08,38,13.9,35,13.9s-4.49,2.18-4.49,5.77S32,25.44,35,25.44,39.5,23.26,39.5,19.67Z"/><path class="cls-1" d="M66.86,8.55A13.87,13.87,0,0,1,70.5,9a75.36,75.36,0,0,1-7.7,21.38,17.81,17.81,0,0,1-7.69,0A75.36,75.36,0,0,1,47.41,9a15.58,15.58,0,0,1,7.27,0c1.2,4.92,2.61,10.05,4.44,15.39h.09A90.85,90.85,0,0,0,63.23,9,13.85,13.85,0,0,1,66.86,8.55Z"/><path class="cls-1" d="M71.35,19.67c0-7.1,4.7-11.33,11.54-11.33s11.55,4.23,11.55,11.33S89.73,31,82.89,31,71.35,26.76,71.35,19.67Zm16,0c0-3.59-1.49-5.77-4.49-5.77s-4.49,2.18-4.49,5.77,1.46,5.77,4.49,5.77S87.38,23.26,87.38,19.67Z"/><path class="cls-1" d="M119.19,19.24c0,8.55-5.77,11.76-12.4,11.76a19.11,19.11,0,0,1-9.41-2.35V.43A13.42,13.42,0,0,1,100.8,0a13.22,13.22,0,0,1,3.43.43V8.72a19.61,19.61,0,0,1,3.84-.38C114.27,8.34,119.19,11.54,119.19,19.24Zm-7.06.43c0-3.42-1.28-5.77-4.91-5.77a11.29,11.29,0,0,0-3,.42V25a9.52,9.52,0,0,0,3,.43C110.85,25.44,112.13,23.09,112.13,19.67Z"/><path class="cls-1" d="M141.8,17.1v12A31.72,31.72,0,0,1,131.11,31c-5.13,0-9.83-1.29-9.83-6.84,0-6.42,6.84-7.06,13.68-7.06,0-2.14-.85-3.2-3.85-3.2a16.79,16.79,0,0,0-6.62,1.71,8.86,8.86,0,0,1-2.35-4.92,20,20,0,0,1,9.62-2.35C137.31,8.34,141.8,10.48,141.8,17.1ZM135,25v-3.2c-4.7,0-6.62,0-6.62,1.83,0,1.37,1.06,1.8,3.2,1.8A14.44,14.44,0,0,0,135,25Z"/><path class="cls-1" d="M165.7,17.53V30.36a12.67,12.67,0,0,1-3.42.42,12.93,12.93,0,0,1-3.42-.42V17.1c0-1.92-.85-3.2-3.85-3.2a11.29,11.29,0,0,0-3,.42v16a12.67,12.67,0,0,1-3.42.42,12.88,12.88,0,0,1-3.42-.42V10.69a22.61,22.61,0,0,1,10.26-2.35C161,8.34,165.7,10.26,165.7,17.53Z"/><path class="cls-1" d="M186,23.73a9.61,9.61,0,0,1,2.36,5.13A15,15,0,0,1,179.76,31c-5.13,0-11.11-2.78-11.11-11.33,0-8.13,6-11.33,11.11-11.33a15,15,0,0,1,8.56,2.14A9.61,9.61,0,0,1,186,15.61a8.2,8.2,0,0,0-5.13-1.71c-2.78,0-5.13,1.49-5.13,5.77s2.35,5.77,5.13,5.77A8.2,8.2,0,0,0,186,23.73Z"/><path class="cls-1" d="M189.17,19.67c0-7.1,4.7-11.33,11.54-11.33s11.55,4.23,11.55,11.33S207.55,31,200.71,31,189.17,26.76,189.17,19.67Zm16,0c0-3.59-1.49-5.77-4.49-5.77s-4.49,2.18-4.49,5.77,1.46,5.77,4.49,5.77S205.2,23.26,205.2,19.67Z"/></g></g></svg>